<svg xmlns="http://www.w3.org/2000/svg" width="185" height="46" fill="none"><mask id="a" width="129" height="30" x="56" y="7.5" fill="#000" maskUnits="userSpaceOnUse"><path fill="#fff" d="M56 7.5h129v30H56z"/><path d="M57.075 36.001a3.37 3.37 0 0 1 0-1.419h2.53c.125-1.048.213-2.135.263-3.26.076-1.15.114-2.302.114-3.452V17.13c0-1.15-.038-2.288-.114-3.414-.05-1.15-.138-2.25-.264-3.298h-2.529a3.37 3.37 0 0 1 0-1.42c.881.026 1.837.052 2.869.077h8.794c1.837 0 3.51.256 5.02.767 1.51.512 2.717 1.33 3.623 2.455.906 1.1 1.359 2.545 1.359 4.334 0 1.816-.466 3.337-1.397 4.565-.93 1.202-2.164 2.11-3.699 2.723-1.51.588-3.145.882-4.906.882h-5.661v-1.534h4.906c1.233 0 2.29-.486 3.17-1.457.906-.998 1.36-2.647 1.36-4.948 0-2.225-.441-3.823-1.322-4.795-.88-.972-2.076-1.457-3.585-1.457H66.02a93.222 93.222 0 0 0-.301 3.26 66.53 66.53 0 0 0-.076 3.26v10.74c0 1.15.025 2.301.076 3.452.075 1.125.176 2.212.301 3.26h3.662c.1.46.1.934 0 1.42a109.032 109.032 0 0 0-3.85-.077h-5.888c-1.032 0-1.988.025-2.869.076zm32.139.499c-1.862 0-3.51-.358-4.945-1.074-1.409-.716-2.516-1.777-3.32-3.184-.806-1.406-1.209-3.12-1.209-5.14 0-1.968.39-3.643 1.17-5.024.78-1.406 1.85-2.48 3.209-3.222 1.358-.767 2.918-1.15 4.68-1.15 1.51 0 2.893.306 4.151.92 1.258.588 2.265 1.547 3.02 2.877.755 1.304 1.132 3.043 1.132 5.216a13.954 13.954 0 0 0-2.529-.307c-.83-.05-1.799-.076-2.906-.076h-7.888v-1.343h7.813c0-1.764-.214-3.196-.642-4.296-.403-1.1-1.183-1.65-2.34-1.65-.931 0-1.66.359-2.19 1.075-.502.69-.867 1.636-1.094 2.838-.201 1.202-.302 2.583-.302 4.143 0 2.199.403 3.963 1.208 5.293.83 1.33 2.101 1.994 3.812 1.994 1.107 0 2.126-.23 3.057-.69.931-.486 1.862-1.406 2.793-2.762.277.128.503.282.68.46.176.154.352.333.528.538-1.082 1.585-2.214 2.748-3.397 3.49-1.157.716-2.654 1.074-4.491 1.074zm18.004 0c-1.685 0-2.994-.307-3.925-.92-.931-.64-1.396-1.854-1.396-3.644v-7.902c0-.895-.013-1.79-.038-2.685 0-.895-.025-1.79-.076-2.685-.05-.895-.138-1.79-.264-2.685a7.643 7.643 0 0 0 1.736-.652 8.467 8.467 0 0 0 1.623-1.15c.478-.46.78-.946.906-1.458a3.2 3.2 0 0 1 1.208 0 138.12 138.12 0 0 0-.189 5.639v13.578c0 .946.151 1.598.453 1.956.302.332.73.498 1.283.498.353 0 .717-.09 1.095-.268.377-.18.73-.448 1.057-.806.201.128.377.294.528.5.176.178.327.37.453.574-.453.563-1.032 1.062-1.736 1.496-.705.41-1.611.614-2.718.614zm-7.963-16.493c-.1-.588-.1-1.164 0-1.726h11.889c.1.562.1 1.138 0 1.726h-11.89zm14.434 15.994a3.36 3.36 0 0 1 0-1.419h2.529c.126-1.048.214-2.135.264-3.26.076-1.15.113-2.302.113-3.452V17.13c0-1.15-.037-2.288-.113-3.414-.05-1.15-.138-2.25-.264-3.298h-2.529a3.36 3.36 0 0 1 0-1.42c.881.026 1.837.052 2.869.077h8.794c1.836 0 3.51.256 5.019.767 1.51.512 2.718 1.33 3.624 2.455.905 1.1 1.358 2.545 1.358 4.334 0 1.816-.465 3.337-1.396 4.565-.931 1.202-2.164 2.11-3.699 2.723-1.51.588-3.145.882-4.906.882h-5.662v-1.534h4.907c1.233 0 2.289-.486 3.17-1.457.906-.998 1.359-2.647 1.359-4.948 0-2.225-.441-3.823-1.321-4.795-.881-.972-2.076-1.457-3.586-1.457h-1.585a93.965 93.965 0 0 0-.302 3.26 66.93 66.93 0 0 0-.075 3.26v10.74c0 1.15.025 2.301.075 3.452.076 1.125.176 2.212.302 3.26h3.661c.101.46.101.934 0 1.42a108.997 108.997 0 0 0-3.85-.077h-5.887a49.66 49.66 0 0 0-2.869.076zm28.849.499c-1.837 0-3.322-.447-4.454-1.343-1.132-.894-1.698-2.186-1.698-3.873 0-1.253.327-2.276.981-3.069.654-.818 1.547-1.432 2.68-1.841 1.132-.41 2.403-.614 3.812-.614.83 0 1.56.064 2.189.192s1.22.294 1.774.499v1.61c-.78-.383-1.686-.575-2.718-.575-1.057 0-1.963.32-2.717.96-.73.638-1.095 1.559-1.095 2.76 0 1.075.252 1.906.755 2.494.528.588 1.22.882 2.076.882a4.37 4.37 0 0 0 2-.498 5.71 5.71 0 0 0 1.699-1.42l.377 1.726c-.654.614-1.459 1.126-2.416 1.535-.956.383-2.038.575-3.245.575zm10.19-12.427v8.208c0 .946.176 1.572.528 1.88.378.28.957.421 1.737.421.075.46.075.934 0 1.42a22.03 22.03 0 0 1-1.661.23c-.503.05-.969.076-1.397.076-1.081 0-1.937-.153-2.566-.46-.604-.332-.994-.818-1.17-1.458l-.377-1.726v-8.783c0-1.304-.202-2.417-.604-3.337-.403-.946-1.133-1.42-2.189-1.42-1.057 0-1.837.423-2.34 1.266-.479.844-.629 1.931-.453 3.26h-4.907c0-1.176.277-2.198.83-3.068.579-.895 1.447-1.598 2.605-2.11 1.182-.51 2.667-.767 4.453-.767 2.793 0 4.743.576 5.85 1.727 1.107 1.125 1.661 2.672 1.661 4.64zm13.546 10.509c.1.46.1.934 0 1.42a42.356 42.356 0 0 0-2.529-.077h-4.529c-.805 0-1.648.025-2.529.076-.1-.485-.1-.959 0-1.419h1.963c.126-.87.214-1.79.264-2.762.075-.971.113-2.032.113-3.183V16.363c0-2.276-.126-4.232-.377-5.868h-1.963c-.1-.486-.1-.96 0-1.42 1.46 0 2.831-.038 4.114-.115a40.688 40.688 0 0 0 3.699-.46c-.151.563-.264 1.317-.34 2.263-.075.946-.138 1.93-.189 2.953-.025.998-.037 1.88-.037 2.647v12.274c0 1.15.025 2.212.075 3.183.076.972.176 1.893.302 2.762h1.963zm9.536 1.918c-.956 0-2.063-.115-3.321-.345a22.482 22.482 0 0 1-3.36-.806v-5.676a3.2 3.2 0 0 1 1.208 0c.353 1.585.969 2.863 1.85 3.835.88.972 2.126 1.458 3.736 1.458 1.032 0 1.875-.192 2.529-.576.679-.383 1.019-1.01 1.019-1.879 0-.716-.252-1.279-.755-1.688-.478-.409-1.107-.741-1.887-.997a154.99 154.99 0 0 0-2.453-.806 16.062 16.062 0 0 1-2.454-1.035 5.864 5.864 0 0 1-1.887-1.726c-.478-.742-.717-1.713-.717-2.915 0-1.79.654-3.17 1.963-4.143 1.308-.997 3.107-1.495 5.397-1.495 1.183 0 2.239.114 3.17.345.956.23 1.837.537 2.642.92v5.255a3.194 3.194 0 0 1-1.207 0c-.328-1.688-.906-2.94-1.737-3.759-.83-.818-1.836-1.227-3.019-1.227-1.032 0-1.799.204-2.302.613-.504.41-.755.985-.755 1.726 0 .716.251 1.279.755 1.688.503.41 1.157.755 1.962 1.036.805.281 1.648.562 2.529.844.906.255 1.761.6 2.567 1.035a5.619 5.619 0 0 1 1.962 1.726c.503.716.755 1.662.755 2.839 0 1.79-.717 3.196-2.151 4.219-1.409 1.023-3.422 1.534-6.039 1.534z"/></mask><path fill="#222" d="M57.075 36.001a3.37 3.37 0 0 1 0-1.419h2.53c.125-1.048.213-2.135.263-3.26.076-1.15.114-2.302.114-3.452V17.13c0-1.15-.038-2.288-.114-3.414-.05-1.15-.138-2.25-.264-3.298h-2.529a3.37 3.37 0 0 1 0-1.42c.881.026 1.837.052 2.869.077h8.794c1.837 0 3.51.256 5.02.767 1.51.512 2.717 1.33 3.623 2.455.906 1.1 1.359 2.545 1.359 4.334 0 1.816-.466 3.337-1.397 4.565-.93 1.202-2.164 2.11-3.699 2.723-1.51.588-3.145.882-4.906.882h-5.661v-1.534h4.906c1.233 0 2.29-.486 3.17-1.457.906-.998 1.36-2.647 1.36-4.948 0-2.225-.441-3.823-1.322-4.795-.88-.972-2.076-1.457-3.585-1.457H66.02a93.222 93.222 0 0 0-.301 3.26 66.53 66.53 0 0 0-.076 3.26v10.74c0 1.15.025 2.301.076 3.452.075 1.125.176 2.212.301 3.26h3.662c.1.46.1.934 0 1.42a109.032 109.032 0 0 0-3.85-.077h-5.888c-1.032 0-1.988.025-2.869.076zm32.139.499c-1.862 0-3.51-.358-4.945-1.074-1.409-.716-2.516-1.777-3.32-3.184-.806-1.406-1.209-3.12-1.209-5.14 0-1.968.39-3.643 1.17-5.024.78-1.406 1.85-2.48 3.209-3.222 1.358-.767 2.918-1.15 4.68-1.15 1.51 0 2.893.306 4.151.92 1.258.588 2.265 1.547 3.02 2.877.755 1.304 1.132 3.043 1.132 5.216a13.954 13.954 0 0 0-2.529-.307c-.83-.05-1.799-.076-2.906-.076h-7.888v-1.343h7.813c0-1.764-.214-3.196-.642-4.296-.403-1.1-1.183-1.65-2.34-1.65-.931 0-1.66.359-2.19 1.075-.502.69-.867 1.636-1.094 2.838-.201 1.202-.302 2.583-.302 4.143 0 2.199.403 3.963 1.208 5.293.83 1.33 2.101 1.994 3.812 1.994 1.107 0 2.126-.23 3.057-.69.931-.486 1.862-1.406 2.793-2.762.277.128.503.282.68.46.176.154.352.333.528.538-1.082 1.585-2.214 2.748-3.397 3.49-1.157.716-2.654 1.074-4.491 1.074zm18.004 0c-1.685 0-2.994-.307-3.925-.92-.931-.64-1.396-1.854-1.396-3.644v-7.902c0-.895-.013-1.79-.038-2.685 0-.895-.025-1.79-.076-2.685-.05-.895-.138-1.79-.264-2.685a7.643 7.643 0 0 0 1.736-.652 8.467 8.467 0 0 0 1.623-1.15c.478-.46.78-.946.906-1.458a3.2 3.2 0 0 1 1.208 0 138.12 138.12 0 0 0-.189 5.639v13.578c0 .946.151 1.598.453 1.956.302.332.73.498 1.283.498.353 0 .717-.09 1.095-.268.377-.18.73-.448 1.057-.806.201.128.377.294.528.5.176.178.327.37.453.574-.453.563-1.032 1.062-1.736 1.496-.705.41-1.611.614-2.718.614zm-7.963-16.493c-.1-.588-.1-1.164 0-1.726h11.889c.1.562.1 1.138 0 1.726h-11.89zm14.434 15.994a3.36 3.36 0 0 1 0-1.419h2.529c.126-1.048.214-2.135.264-3.26.076-1.15.113-2.302.113-3.452V17.13c0-1.15-.037-2.288-.113-3.414-.05-1.15-.138-2.25-.264-3.298h-2.529a3.36 3.36 0 0 1 0-1.42c.881.026 1.837.052 2.869.077h8.794c1.836 0 3.51.256 5.019.767 1.51.512 2.718 1.33 3.624 2.455.905 1.1 1.358 2.545 1.358 4.334 0 1.816-.465 3.337-1.396 4.565-.931 1.202-2.164 2.11-3.699 2.723-1.51.588-3.145.882-4.906.882h-5.662v-1.534h4.907c1.233 0 2.289-.486 3.17-1.457.906-.998 1.359-2.647 1.359-4.948 0-2.225-.441-3.823-1.321-4.795-.881-.972-2.076-1.457-3.586-1.457h-1.585a93.965 93.965 0 0 0-.302 3.26 66.93 66.93 0 0 0-.075 3.26v10.74c0 1.15.025 2.301.075 3.452.076 1.125.176 2.212.302 3.26h3.661c.101.46.101.934 0 1.42a108.997 108.997 0 0 0-3.85-.077h-5.887a49.66 49.66 0 0 0-2.869.076zm28.849.499c-1.837 0-3.322-.447-4.454-1.343-1.132-.894-1.698-2.186-1.698-3.873 0-1.253.327-2.276.981-3.069.654-.818 1.547-1.432 2.68-1.841 1.132-.41 2.403-.614 3.812-.614.83 0 1.56.064 2.189.192s1.22.294 1.774.499v1.61c-.78-.383-1.686-.575-2.718-.575-1.057 0-1.963.32-2.717.96-.73.638-1.095 1.559-1.095 2.76 0 1.075.252 1.906.755 2.494.528.588 1.22.882 2.076.882a4.37 4.37 0 0 0 2-.498 5.71 5.71 0 0 0 1.699-1.42l.377 1.726c-.654.614-1.459 1.126-2.416 1.535-.956.383-2.038.575-3.245.575zm10.19-12.427v8.208c0 .946.176 1.572.528 1.88.378.28.957.421 1.737.421.075.46.075.934 0 1.42a22.03 22.03 0 0 1-1.661.23c-.503.05-.969.076-1.397.076-1.081 0-1.937-.153-2.566-.46-.604-.332-.994-.818-1.17-1.458l-.377-1.726v-8.783c0-1.304-.202-2.417-.604-3.337-.403-.946-1.133-1.42-2.189-1.42-1.057 0-1.837.423-2.34 1.266-.479.844-.629 1.931-.453 3.26h-4.907c0-1.176.277-2.198.83-3.068.579-.895 1.447-1.598 2.605-2.11 1.182-.51 2.667-.767 4.453-.767 2.793 0 4.743.576 5.85 1.727 1.107 1.125 1.661 2.672 1.661 4.64zm13.546 10.509c.1.46.1.934 0 1.42a42.356 42.356 0 0 0-2.529-.077h-4.529c-.805 0-1.648.025-2.529.076-.1-.485-.1-.959 0-1.419h1.963c.126-.87.214-1.79.264-2.762.075-.971.113-2.032.113-3.183V16.363c0-2.276-.126-4.232-.377-5.868h-1.963c-.1-.486-.1-.96 0-1.42 1.46 0 2.831-.038 4.114-.115a40.688 40.688 0 0 0 3.699-.46c-.151.563-.264 1.317-.34 2.263-.075.946-.138 1.93-.189 2.953-.025.998-.037 1.88-.037 2.647v12.274c0 1.15.025 2.212.075 3.183.076.972.176 1.893.302 2.762h1.963zm9.536 1.918c-.956 0-2.063-.115-3.321-.345a22.482 22.482 0 0 1-3.36-.806v-5.676a3.2 3.2 0 0 1 1.208 0c.353 1.585.969 2.863 1.85 3.835.88.972 2.126 1.458 3.736 1.458 1.032 0 1.875-.192 2.529-.576.679-.383 1.019-1.01 1.019-1.879 0-.716-.252-1.279-.755-1.688-.478-.409-1.107-.741-1.887-.997a154.99 154.99 0 0 0-2.453-.806 16.062 16.062 0 0 1-2.454-1.035 5.864 5.864 0 0 1-1.887-1.726c-.478-.742-.717-1.713-.717-2.915 0-1.79.654-3.17 1.963-4.143 1.308-.997 3.107-1.495 5.397-1.495 1.183 0 2.239.114 3.17.345.956.23 1.837.537 2.642.92v5.255a3.194 3.194 0 0 1-1.207 0c-.328-1.688-.906-2.94-1.737-3.759-.83-.818-1.836-1.227-3.019-1.227-1.032 0-1.799.204-2.302.613-.504.41-.755.985-.755 1.726 0 .716.251 1.279.755 1.688.503.41 1.157.755 1.962 1.036.805.281 1.648.562 2.529.844.906.255 1.761.6 2.567 1.035a5.619 5.619 0 0 1 1.962 1.726c.503.716.755 1.662.755 2.839 0 1.79-.717 3.196-2.151 4.219-1.409 1.023-3.422 1.534-6.039 1.534z"/><path fill="#222" d="m147.724 32.686.377 1.726.196-.043-.378-1.726-.195.043zM57.076 36l-.196.04.035.17.172-.01-.012-.2zm0-1.419v-.2h-.162l-.034.157.195.043zm2.528 0v.2h.178l.02-.176-.198-.024zm.264-3.26-.2-.013v.004l.2.009zm0-17.606-.2.01v.004l.2-.014zm-.264-3.298.199-.024-.021-.176h-.178v.2zm-2.529 0-.195.04.033.16h.163v-.2zm0-1.42.006-.2-.166-.004-.035.162.195.043zm2.869.077-.005.2h.005v-.2zm13.814.767-.064.19.064-.19zm3.623 2.455-.156.126.002.001.154-.127zm-.038 8.899.158.122.001-.001-.159-.121zm-3.699 2.723.073.186h.002l-.075-.186zm-10.568.882h-.2v.2h.2v-.2zm0-1.534v-.2h-.2v.2h.2zm8.077-1.457-.148-.135.148.135zm-5.133-11.2v-.2h-.179l-.02.178.2.022zm-.301 3.26-.2-.015v.005l.2.01zm0 17.452-.2.009v.004l.2-.013zm.301 3.26-.198.024.021.176h.177v-.2zm3.662 0 .195-.043-.035-.157h-.16v.2zm0 1.42-.008.2.169.005.034-.165-.195-.04zm14.587-.576-.09.178.001.001.09-.179zm-3.32-3.184-.174.1.173-.1zm-.039-10.164.175.099v-.002l-.175-.097zm3.209-3.222.095.176.003-.002-.099-.174zm8.831-.23-.088.18.004.001.084-.181zm3.02 2.877-.174.099.174-.1zm1.132 5.216-.042.196.242.052v-.248h-.2zm-2.529-.307-.012.2h.006l.006-.2zm-10.794-.076h-.2v.2h.2v-.2zm0-1.343v-.2h-.2v.2h.2zm7.813 0v.2h.2v-.2h-.2zm-.642-4.296-.188.069.001.004.187-.073zm-4.53-.575-.16-.119v.001l.16.118zm-1.094 2.838-.196-.037-.001.004.197.033zm.906 9.436-.171.103.001.003.17-.106zm6.87 1.304.088.18.004-.003-.093-.177zm2.792-2.762.084-.181-.153-.071-.096.14.165.112zm.68.46-.143.14.005.006.006.005.132-.15zm.528.538.165.112.087-.127-.1-.116-.152.13zm-3.397 3.49.105.17h.001l-.106-.17zm9.588.154-.113.164.003.002.11-.166zm-1.434-14.23h-.2v.005l.2-.006zm-.076-2.686.2-.01-.2.01zm-.264-2.685-.045-.194-.178.04.025.182.198-.028zm1.736-.652.091.179.006-.003-.097-.176zm1.623-1.15.135.148.004-.004-.139-.144zm.906-1.458-.037-.196-.126.024-.031.124.194.048zm1.208 0 .2.01.009-.174-.172-.032-.037.196zm-.189 5.639-.2-.003v.003h.2zm.453 15.534-.153.129.005.005.148-.134zm2.378.23.086.18-.086-.18zm1.057-.806.107-.168-.142-.09-.113.123.148.135zm.528.5-.161.118.009.011.009.01.143-.14zm.453.574.156.126.088-.11-.074-.12-.17.104zm-1.736 1.496.1.173.005-.002-.105-.17zm-10.681-15.88-.197.035.028.166h.169v-.2zm0-1.725v-.2h-.168l-.03.165.198.035zm11.889 0 .196-.035-.029-.165h-.167v.2zm0 1.726v.2h.168l.029-.166-.197-.034zM113.689 36l-.196.04.035.17.173-.01-.012-.2zm0-1.419v-.2h-.161l-.034.157.195.043zm2.529 0v.2h.177l.021-.176-.198-.024zm.264-3.26-.2-.013v.004l.2.009zm0-17.606-.2.01.001.004.199-.014zm-.264-3.298.198-.024-.021-.176h-.177v.2zm-2.529 0-.196.04.033.16h.163v-.2zm0-1.42.006-.2-.166-.004-.035.162.195.043zm2.869.077-.005.2h.005v-.2zm13.813.767-.064.19.064-.19zm3.624 2.455-.156.126.001.001.155-.127zm-.038 8.899.158.122.001-.001-.159-.121zm-3.699 2.723.073.186h.001l-.074-.186zm-10.568.882h-.2v.2h.2v-.2zm0-1.534v-.2h-.2v.2h.2zm8.077-1.457-.148-.135.148.135zm-5.133-11.2v-.2h-.179l-.02.178.199.022zm-.302 3.26-.199-.015-.001.005.2.01zm0 17.452-.2.009.001.004.199-.013zm.302 3.26-.199.024.022.176h.177v-.2zm3.661 0 .195-.043-.034-.157h-.161v.2zm0 1.42-.007.2.169.005.034-.165-.196-.04zm11.072-7.787.154.127.002-.002-.156-.125zm2.68-1.841.068.188-.068-.188zm7.775.077h.2v-.14l-.131-.048-.069.188zm0 1.61-.089.18.289.142v-.321h-.2zm-5.435.384-.13-.152-.002.002.132.15zm-.34 5.255-.152.13.003.004.149-.134zm4.076.384.091.178.005-.003-.096-.175zm1.699-1.42.155.127.045-.056v-.07h-.2zm.377 1.726.193-.053-.088-.32-.242.227.137.146zm-2.416 1.535.075.185.004-.002-.079-.183zm7.473-1.765-.131.151.006.005.006.005.119-.16zm1.737.422.197-.032-.028-.168h-.169v.2zm0 1.42.034.196.141-.025.022-.14-.197-.032zm-1.661.23-.019-.2h-.001l.02.2zm-3.963-.384-.097.175.009.005.088-.18zm-2.151-15.304-.184.078v.002l.184-.08zm-4.529-.154-.172-.102-.002.004.174.098zm-.453 3.26v.2h.228l-.03-.226-.198.027zm-4.907 0h-.2v.2h.2v-.2zm.83-3.068-.167-.108h-.001l.168.108zm2.605-2.11-.08-.183h-.001l.081.184zm10.303.96-.144.138.002.002.142-.14zm15.207 15.15.195-.043-.034-.157h-.161v.2zm0 1.42-.012.199.172.01.036-.17-.196-.04zm-9.587 0-.196.04.035.169.173-.01-.012-.2zm0-1.42v-.2h-.161l-.034.157.195.043zm1.963 0v.2h.173l.025-.171-.198-.029zm.264-2.762-.199-.015-.001.005.2.01zm-.264-21.326.197-.03-.026-.17h-.171v.2zm-1.963 0-.196.041.033.16h.163v-.2zm0-1.419v-.2h-.161l-.034.158.195.042zm4.114-.115.012.2h.004l-.016-.2zm3.699-.46.193.052.081-.302-.308.053.034.197zm-.34 2.263-.199-.016.199.016zm-.189 2.953-.199-.01v.005l.199.005zm.038 18.105-.2.01.001.005.199-.015zm.302 2.761-.198.029.025.171h.173v-.2zm8.178 1.573.036-.197h-.004l-.032.197zm-3.36-.806h-.2v.145l.138.045.062-.19zm0-5.676-.037-.197-.163.031v.166h.2zm1.208 0 .195-.044-.028-.128-.129-.025-.038.197zm1.85 3.835.148-.134-.148.134zm6.265.882-.098-.174-.003.002.101.172zm.264-3.567-.13.152.004.003.126-.155zm-1.887-.997-.064.19h.002l.062-.19zm-2.453-.806-.063.19.002.001.061-.19zm-2.454-1.035-.099.173.007.004.092-.177zm-1.887-1.726-.168.108.005.007.163-.115zm1.246-7.058.119.16h.002l-.121-.16zm8.567-1.15-.048.194h.002l.046-.194zm2.642.92h.2v-.126l-.114-.054-.086.18zm0 5.255.038.197.162-.031v-.166h-.2zm-1.207 0-.197.038.026.133.133.026.038-.197zm-1.737-3.759-.14.143.14-.143zm-5.321-.614-.126-.155.126.155zm0 3.414-.126.155.126-.155zm1.962 1.036-.066.189.066-.19zm2.529.844-.061.19.007.002.054-.192zm2.567 1.035-.095.176.095-.176zm1.962 1.726-.163.115.163-.115zm-1.396 7.058-.116-.163h-.002l.118.163zm-124.578.995a3.172 3.172 0 0 1 0-1.336l-.39-.086c-.108.49-.107.991-.001 1.503l.391-.081zm-.196-1.179h2.53v-.4h-2.53v.4zm2.728-.176c.126-1.054.215-2.145.265-3.275l-.4-.018a43.638 43.638 0 0 1-.262 3.245l.397.048zm.265-3.271a52.9 52.9 0 0 0 .114-3.465h-.4a52.52 52.52 0 0 1-.113 3.439l.399.026zm.114-3.465V17.13h-.4v10.74h.4zm0-10.74a51.18 51.18 0 0 0-.114-3.427l-.4.027c.076 1.12.114 2.254.114 3.4h.4zm-.114-3.422a43.922 43.922 0 0 0-.265-3.314l-.397.048c.125 1.043.212 2.137.263 3.283l.4-.017zm-.464-3.49h-2.529v.4h2.53v-.4zm-2.333.16a3.172 3.172 0 0 1 0-1.337l-.39-.085c-.108.49-.107.99-.001 1.502l.391-.08zm-.201-1.18c.88.026 1.837.052 2.869.077l.01-.4A676.31 676.31 0 0 1 57.08 8.8l-.011.4zm2.874.077h2.868v-.4h-2.868v.4zm2.868 0h5.926v-.4h-5.926v.4zm5.926 0c1.818 0 3.47.253 4.956.757l.128-.379c-1.533-.52-3.229-.778-5.084-.778v.4zm4.956.757c1.477.5 2.652 1.298 3.531 2.39l.312-.25c-.932-1.158-2.173-1.997-3.715-2.519l-.129.379zm3.532 2.392c.87 1.056 1.314 2.452 1.314 4.207h.4c0-1.824-.462-3.317-1.405-4.46l-.308.253zm1.314 4.207c0 1.78-.456 3.257-1.356 4.444l.319.242c.961-1.268 1.437-2.834 1.437-4.686h-.4zm-1.355 4.442c-.907 1.172-2.11 2.059-3.615 2.66l.149.372c1.565-.626 2.828-1.554 3.782-2.787l-.316-.245zm-3.613 2.66c-1.485.578-3.096.868-4.834.868v.4c1.784 0 3.444-.298 4.979-.896l-.145-.372zm-4.834.868h-5.661v.4h5.66v-.4zm-5.462.2v-1.534h-.4V24.8h.4zm-.2-1.334h4.907v-.4h-4.907v.4zm4.907 0c1.293 0 2.403-.513 3.319-1.523l-.297-.269c-.845.933-1.85 1.392-3.022 1.392v.4zm3.319-1.523c.955-1.052 1.41-2.764 1.41-5.082h-.4c0 2.284-.451 3.871-1.307 4.813l.297.27zm1.41-5.082c0-2.243-.442-3.902-1.373-4.93l-.296.27c.83.916 1.27 2.453 1.27 4.66h.4zm-1.373-4.93c-.924-1.02-2.177-1.522-3.733-1.522v.4c1.462 0 2.6.468 3.437 1.391l.296-.268zm-3.733-1.522H66.02v.4h1.586v-.4zm-1.784.178a93.511 93.511 0 0 0-.303 3.267l.399.03a92.74 92.74 0 0 1 .301-3.254l-.397-.043zm-.303 3.272a66.71 66.71 0 0 0-.076 3.27h.4c0-1.148.025-2.231.075-3.25l-.4-.02zm-.076 3.27v10.74h.4V17.13h-.4zm0 10.74c0 1.153.025 2.307.076 3.46l.4-.017a78.797 78.797 0 0 1-.076-3.443h-.4zm.076 3.465c.076 1.129.177 2.219.303 3.271l.397-.048a62.175 62.175 0 0 1-.3-3.25l-.4.027zm.501 3.447h3.662v-.4H66.02v.4zm3.466-.157c.094.431.095.876 0 1.336l.391.08a3.572 3.572 0 0 0 0-1.502l-.39.086zm.203 1.176a109.374 109.374 0 0 0-3.857-.076v.4c1.13 0 2.41.025 3.842.076l.015-.4zm-3.857-.076h-3.02v.4h3.02v-.4zm-3.02 0h-2.868v.4h2.868v-.4zm-2.868 0c-1.035 0-1.995.025-2.88.077l.023.399a49.57 49.57 0 0 1 2.857-.076v-.4zm29.27.575c-1.836 0-3.453-.353-4.855-1.053l-.179.358c1.466.732 3.146 1.095 5.034 1.095v-.4zm-4.854-1.052c-1.373-.698-2.452-1.731-3.238-3.105l-.347.199c.824 1.44 1.96 2.528 3.404 3.262l.181-.356zm-3.238-3.105c-.784-1.37-1.182-3.047-1.182-5.04h-.4c0 2.046.408 3.796 1.235 5.239l.347-.199zm-1.182-5.04c0-1.943.385-3.582 1.145-4.927l-.349-.196c-.8 1.417-1.196 3.128-1.196 5.123h.4zm1.145-4.928c.763-1.375 1.805-2.42 3.13-3.143l-.192-.351c-1.394.76-2.49 1.862-3.287 3.3l.35.194zm3.132-3.145c1.325-.748 2.85-1.125 4.582-1.125v-.4c-1.792 0-3.386.39-4.779 1.177l.197.348zm4.582-1.125c1.481 0 2.835.301 4.064.9l.175-.359c-1.288-.628-2.702-.94-4.24-.94v.4zm4.066.902c1.217.569 2.194 1.497 2.93 2.795l.349-.198c-.774-1.362-1.81-2.352-3.11-2.96l-.169.363zm2.931 2.796c.732 1.263 1.106 2.963 1.106 5.116h.4c0-2.194-.38-3.971-1.16-5.317l-.346.2zm1.348 4.92a14.159 14.159 0 0 0-2.565-.31l-.012.4a13.6 13.6 0 0 1 2.493.302l.084-.391zm-2.559-.31a48.15 48.15 0 0 0-2.918-.077v.4c1.104 0 2.069.025 2.894.076l.024-.4zm-2.918-.077h-7.888v.4h7.888v-.4zm-7.688.2v-1.343h-.4v1.343h.4zm-.2-1.143h7.813v-.4h-7.813v.4zm8.013-.2c0-1.778-.216-3.237-.656-4.368l-.373.145c.416 1.068.628 2.473.628 4.223h.4zm-.654-4.364c-.212-.58-.53-1.029-.96-1.332-.43-.303-.957-.45-1.568-.45v.4c.546 0 .988.13 1.338.377.35.246.624.622.814 1.142l.376-.137zm-2.528-1.781c-.991 0-1.782.385-2.35 1.155l.322.238c.488-.663 1.157-.993 2.028-.993v-.4zm-2.35 1.156c-.527.723-.9 1.7-1.13 2.92l.393.073c.223-1.184.58-2.099 1.06-2.757l-.324-.236zm-1.131 2.923c-.204 1.215-.305 2.608-.305 4.176h.4c0-1.552.1-2.921.3-4.11l-.395-.066zm-.305 4.176c0 2.221.407 4.025 1.237 5.396l.342-.207c-.78-1.288-1.179-3.012-1.179-5.19h-.4zm1.239 5.399c.87 1.394 2.209 2.088 3.981 2.088v-.4c-1.65 0-2.852-.635-3.642-1.9l-.34.212zm3.981 2.088c1.136 0 2.186-.236 3.146-.71l-.177-.36c-.902.447-1.89.67-2.969.67v.4zm3.15-.713c.972-.507 1.925-1.457 2.865-2.825l-.33-.227c-.922 1.342-1.83 2.233-2.72 2.698l.185.354zm2.616-2.757c.26.12.465.26.621.419l.285-.28a2.484 2.484 0 0 0-.738-.502l-.168.363zm.632.43c.168.146.338.318.508.516l.303-.26a5.49 5.49 0 0 0-.548-.558l-.263.301zm.495.273c-1.072 1.57-2.186 2.711-3.338 3.434l.212.339c1.213-.761 2.364-1.947 3.456-3.548l-.33-.225zM93.6 35.256c-1.117.69-2.574 1.044-4.386 1.044v.4c1.861 0 3.398-.363 4.596-1.104l-.21-.34zm13.618 1.044c-1.665 0-2.929-.304-3.815-.887l-.22.333c.976.644 2.329.954 4.035.954v-.4zm-3.812-.885c-.85-.584-1.309-1.716-1.309-3.48h-.4c0 1.817.472 3.115 1.483 3.81l.226-.33zm-1.309-3.48v-7.9h-.4v7.9h.4zm0-7.9c0-.898-.013-1.794-.038-2.691l-.4.01c.025.894.038 1.787.038 2.68h.4zm-.038-2.686c0-.898-.025-1.797-.076-2.696l-.399.023c.05.89.075 1.782.075 2.673h.4zm-.076-2.696c-.051-.9-.139-1.8-.266-2.701l-.396.055c.125.89.213 1.78.263 2.669l.399-.023zm-.419-2.479a7.87 7.87 0 0 0 1.782-.668l-.181-.357a7.482 7.482 0 0 1-1.691.636l.09.39zm1.788-.671a8.684 8.684 0 0 0 1.661-1.178l-.269-.296a8.286 8.286 0 0 1-1.585 1.123l.193.35zm1.665-1.182c.498-.48.824-.998.961-1.554l-.388-.096c-.115.467-.393.92-.85 1.362l.277.288zm.805-1.405a2.993 2.993 0 0 1 1.132 0l.075-.393a3.396 3.396 0 0 0-1.282 0l.075.393zm.97-.208a138.53 138.53 0 0 0-.189 5.647l.4.005c.025-1.89.088-3.766.189-5.63l-.4-.022zm-.189 5.65v5.675h.4v-5.676h-.4zm0 5.676v7.902h.4v-7.902h-.4zm0 7.902c0 .952.149 1.669.5 2.085l.306-.258c-.253-.3-.406-.888-.406-1.827h-.4zm.505 2.09c.348.384.836.564 1.431.564v-.4c-.511 0-.879-.151-1.135-.433l-.296.27zm1.431.564c.387 0 .781-.098 1.181-.287l-.172-.362c-.355.169-.691.25-1.009.25v.4zm1.181-.287a3.634 3.634 0 0 0 1.118-.852l-.295-.27a3.223 3.223 0 0 1-.995.76l.172.362zm.863-.818c.18.114.338.263.475.449l.322-.238a2.177 2.177 0 0 0-.582-.548l-.215.337zm.493.47c.167.17.308.349.426.54l.34-.21a3.442 3.442 0 0 0-.48-.61l-.286.28zm.44.31c-.437.542-.997 1.027-1.685 1.451l.21.34c.721-.444 1.318-.957 1.787-1.54l-.312-.251zm-1.681 1.448c-.665.386-1.533.587-2.617.587v.4c1.131 0 2.074-.209 2.818-.64l-.201-.347zm-10.383-15.74a4.77 4.77 0 0 1 0-1.657l-.394-.07a5.17 5.17 0 0 0 0 1.795l.394-.068zm-.197-1.492h11.889v-.4h-11.89v.4zm11.692-.165c.096.539.096 1.09-.001 1.657l.395.068a5.177 5.177 0 0 0-.001-1.795l-.393.07zm.197 1.49h-11.89v.4h11.89v-.4zm2.741 16.155a3.182 3.182 0 0 1-.001-1.336l-.39-.086c-.107.49-.107.991-.001 1.503l.392-.081zm-.196-1.179h2.529v-.4h-2.529v.4zm2.727-.176c.127-1.054.215-2.145.266-3.275l-.4-.018a43.637 43.637 0 0 1-.263 3.245l.397.048zm.266-3.271a53.46 53.46 0 0 0 .113-3.465h-.4a51.97 51.97 0 0 1-.113 3.439l.4.026zm.113-3.465V17.13h-.4v10.74h.4zm0-10.74c0-1.155-.038-2.297-.113-3.427l-.399.027c.075 1.12.112 2.254.112 3.4h.4zm-.113-3.422a43.914 43.914 0 0 0-.266-3.314l-.397.048c.125 1.043.213 2.137.263 3.283l.4-.017zm-.464-3.49h-2.529v.4h2.529v-.4zm-2.333.16a3.182 3.182 0 0 1-.001-1.337l-.39-.085a3.57 3.57 0 0 0-.001 1.502l.392-.08zm-.202-1.18a543.3 543.3 0 0 0 2.87.077l.009-.4a676.334 676.334 0 0 1-2.867-.076l-.012.4zm2.875.077h2.868v-.4h-2.868v.4zm2.868 0h5.926v-.4h-5.926v.4zm5.926 0c1.818 0 3.469.253 4.955.757l.128-.379c-1.533-.52-3.228-.778-5.083-.778v.4zm4.955.757c1.478.5 2.652 1.298 3.532 2.39l.311-.25c-.932-1.158-2.173-1.997-3.715-2.519l-.128.379zm3.533 2.392c.87 1.056 1.313 2.452 1.313 4.207h.4c0-1.824-.462-3.317-1.404-4.46l-.309.253zm1.313 4.207c0 1.78-.455 3.257-1.356 4.444l.319.242c.962-1.268 1.437-2.834 1.437-4.686h-.4zm-1.354 4.442c-.908 1.172-2.11 2.059-3.615 2.66l.148.372c1.565-.626 2.828-1.554 3.783-2.787l-.316-.245zm-3.614 2.66c-1.484.578-3.095.868-4.833.868v.4c1.784 0 3.444-.298 4.979-.896l-.146-.372zm-4.833.868h-5.662v.4h5.662v-.4zm-5.462.2v-1.534h-.4v1.534h.4zm-.2-1.334h4.907v-.4h-4.907v.4zm4.907 0c1.293 0 2.402-.513 3.318-1.523l-.296-.269c-.846.933-1.85 1.392-3.022 1.392v.4zm3.318-1.523c.956-1.052 1.411-2.764 1.411-5.082h-.4c0 2.284-.451 3.871-1.307 4.813l.296.27zm1.411-5.082c0-2.243-.442-3.902-1.373-4.93l-.296.27c.83.916 1.269 2.453 1.269 4.66h.4zm-1.373-4.93c-.924-1.02-2.177-1.522-3.734-1.522v.4c1.463 0 2.601.468 3.438 1.391l.296-.268zm-3.734-1.522h-1.585v.4h1.585v-.4zm-1.784.178a91.783 91.783 0 0 0-.302 3.267l.399.03c.075-1.02.175-2.105.301-3.254l-.398-.043zm-.303 3.272a67.373 67.373 0 0 0-.075 3.27h.4c0-1.148.025-2.231.075-3.25l-.4-.02zm-.075 3.27v10.74h.4V17.13h-.4zm0 10.74c0 1.153.025 2.307.075 3.46l.4-.017a79.111 79.111 0 0 1-.075-3.443h-.4zm.076 3.465c.075 1.129.176 2.219.302 3.271l.398-.048a61.318 61.318 0 0 1-.301-3.25l-.399.027zm.501 3.447h3.661v-.4h-3.661v.4zm3.466-.157c.094.431.095.876-.001 1.336l.392.08a3.572 3.572 0 0 0-.001-1.502l-.39.086zm.202 1.176a109.342 109.342 0 0 0-3.857-.076v.4c1.13 0 2.411.025 3.843.076l.014-.4zm-3.857-.076h-3.019v.4h3.019v-.4zm-3.019 0h-2.868v.4h2.868v-.4zm-2.868 0c-1.035 0-1.995.025-2.88.077l.023.399c.876-.05 1.828-.076 2.857-.076v-.4zm25.98.575c-1.805 0-3.242-.44-4.33-1.3l-.248.314c1.176.93 2.708 1.386 4.578 1.386v-.4zm-4.33-1.3c-1.076-.85-1.622-2.078-1.622-3.716h-.4c0 1.737.585 3.09 1.774 4.03l.248-.313zm-1.622-3.716c0-1.217.317-2.192.935-2.942l-.308-.254c-.69.836-1.027 1.907-1.027 3.196h.4zm.937-2.944c.628-.785 1.489-1.38 2.592-1.778l-.136-.376c-1.162.42-2.088 1.053-2.768 1.904l.312.25zm2.592-1.778c1.107-.4 2.354-.602 3.744-.602v-.4c-1.429 0-2.723.208-3.88.626l.136.376zm3.744-.602c.82 0 1.536.063 2.149.188l.079-.392c-.645-.131-1.388-.196-2.228-.196v.4zm2.149.188c.62.126 1.201.29 1.744.49l.139-.375a12.198 12.198 0 0 0-1.804-.507l-.079.392zm1.614.303v1.61h.4v-1.61h-.4zm.288 1.431c-.812-.4-1.749-.596-2.806-.596v.4c1.007 0 1.881.187 2.629.555l.177-.359zm-2.806-.596c-1.101 0-2.053.334-2.847 1.007l.259.305c.716-.607 1.575-.912 2.588-.912v-.4zm-2.849 1.009c-.783.686-1.163 1.667-1.163 2.912h.4c0-1.16.35-2.019 1.026-2.611l-.263-.301zm-1.163 2.912c0 1.103.259 1.987.803 2.623l.304-.26c-.462-.54-.707-1.319-.707-2.363h-.4zm.806 2.627c.57.634 1.318.948 2.225.948v-.4c-.804 0-1.44-.273-1.927-.816l-.298.268zm2.225.948c.713 0 1.411-.175 2.091-.52l-.181-.357a4.175 4.175 0 0 1-1.91.477v.4zm2.096-.523a5.897 5.897 0 0 0 1.758-1.468l-.311-.253a5.493 5.493 0 0 1-1.639 1.37l.192.351zm1.843-.014c-.635.595-1.419 1.094-2.357 1.496l.157.367c.974-.416 1.8-.94 2.474-1.572l-.274-.291zm-2.353 1.494c-.929.373-1.985.561-3.171.561v.4c1.229 0 2.336-.195 3.32-.59l-.149-.371zm6.819-11.666v8.208h.4v-8.208h-.4zm0 8.208c0 .484.045.897.14 1.233.094.337.242.61.457.797l.263-.301c-.138-.12-.254-.314-.335-.604-.082-.29-.125-.663-.125-1.125h-.4zm.609 2.04c.428.319 1.058.461 1.856.461v-.4c-.763 0-1.29-.139-1.617-.382l-.239.32zm1.658.294c.072.438.072.89 0 1.356l.395.061c.079-.505.079-1 0-1.482l-.395.065zm.163 1.19c-.574.1-1.123.177-1.645.227l.038.399c.534-.052 1.093-.13 1.676-.233l-.069-.394zm-1.646.227a13.58 13.58 0 0 1-1.377.076v.4c.436 0 .908-.026 1.417-.078l-.04-.398zm-1.377.076c-1.066 0-1.887-.152-2.478-.44l-.176.36c.667.325 1.557.48 2.654.48v-.4zm-2.47-.435c-.558-.308-.912-.75-1.073-1.336l-.386.106c.191.694.617 1.223 1.267 1.58l.192-.35zm-1.443-3.009v-8.783h-.4v8.783h.4zm0-8.783c0-1.324-.205-2.465-.621-3.417l-.367.16c.389.889.588 1.972.588 3.257h.4zm-.62-3.416c-.214-.502-.521-.891-.925-1.153-.403-.262-.89-.387-1.448-.387v.4c.498 0 .905.11 1.231.322.325.211.585.532.774.975l.368-.157zm-2.373-1.54c-1.121 0-1.97.453-2.512 1.363l.343.205c.464-.778 1.176-1.168 2.169-1.168v-.4zm-2.514 1.367c-.507.894-.657 2.028-.478 3.385l.397-.053c-.173-1.302-.021-2.341.429-3.135l-.348-.197zm-.279 3.159h-4.907v.4h4.907v-.4zm-4.707.2c0-1.144.269-2.128.799-2.961l-.337-.215c-.577.906-.862 1.967-.862 3.176h.4zm.798-2.96c.554-.857 1.389-1.537 2.518-2.035l-.162-.366c-1.186.524-2.088 1.25-2.691 2.184l.335.217zm2.516-2.035c1.15-.497 2.605-.75 4.374-.75v-.4c-1.804 0-3.317.258-4.533.783l.159.367zm4.374-.75c2.777 0 4.657.574 5.706 1.664l.289-.277c-1.165-1.21-3.185-1.787-5.995-1.787v.4zm5.708 1.666c1.062 1.079 1.603 2.57 1.603 4.5h.4c0-2.007-.566-3.61-1.718-4.78l-.285.28zm15.153 15.053c.095.431.095.876 0 1.336l.392.08a3.572 3.572 0 0 0-.001-1.502l-.391.086zm.208 1.177a42.673 42.673 0 0 0-2.541-.077v.4c.826 0 1.665.025 2.517.076l.024-.4zm-2.541-.077h-2.265v.4h2.265v-.4zm-2.265 0h-2.264v.4h2.264v-.4zm-2.264 0c-.809 0-1.656.025-2.54.077l.023.399c.877-.05 1.716-.076 2.517-.076v-.4zm-2.333.236a3.166 3.166 0 0 1 0-1.336l-.391-.086c-.107.49-.107.991-.001 1.503l.392-.081zm-.196-1.179h1.963v-.4h-1.963v.4zm2.161-.171c.126-.876.215-1.803.266-2.78l-.4-.02c-.05.965-.137 1.88-.262 2.743l.396.057zm.265-2.775a41.47 41.47 0 0 0 .114-3.199h-.4c0 1.146-.037 2.202-.112 3.168l.398.031zm.114-3.199V16.363h-.4v12.274h.4zm0-12.274c0-2.282-.126-4.25-.38-5.899l-.395.06c.25 1.625.375 3.57.375 5.839h.4zm-.577-6.069h-1.963v.4h1.963v-.4zm-1.767.16a3.165 3.165 0 0 1 0-1.336l-.391-.085a3.57 3.57 0 0 0-.001 1.502l.392-.081zm-.196-1.179c1.463 0 2.838-.038 4.126-.115l-.024-.4a68.93 68.93 0 0 1-4.102.115v.4zm4.13-.115a40.85 40.85 0 0 0 3.717-.463l-.068-.394a40.44 40.44 0 0 1-3.681.458l.032.399zm3.49-.712c-.156.58-.27 1.347-.346 2.3l.399.03c.075-.94.187-1.68.333-2.226l-.386-.104zm-.346 2.3a95.099 95.099 0 0 0-.189 2.959l.399.02c.05-1.022.113-2.004.189-2.948l-.399-.032zm-.189 2.963c-.026.999-.038 1.883-.038 2.652h.4c0-.765.012-1.646.037-2.641l-.399-.01zm-.038 2.652v12.274h.4V16.363h-.4zm0 12.274c0 1.154.025 2.218.075 3.194l.4-.02a61.813 61.813 0 0 1-.075-3.174h-.4zm.076 3.199c.076.976.177 1.9.303 2.775l.396-.057a41.818 41.818 0 0 1-.3-2.749l-.399.031zm.501 2.946h1.963v-.4h-1.963v.4zM175.81 36.3c-.941 0-2.036-.113-3.285-.342l-.072.394c1.266.231 2.385.348 3.357.348v-.4zm-3.289-.342a22.26 22.26 0 0 1-3.329-.799l-.125.38c1.018.336 2.147.607 3.389.813l.065-.394zm-3.192-.609v-5.676h-.4v5.676h.4zm-.162-5.48a2.999 2.999 0 0 1 1.133 0l.075-.393a3.4 3.4 0 0 0-1.283 0l.075.393zm.975-.153c.358 1.611.988 2.924 1.896 3.926l.297-.268c-.853-.94-1.456-2.185-1.803-3.745l-.39.087zm1.896 3.926c.927 1.023 2.232 1.524 3.885 1.524v-.4c-1.568 0-2.754-.471-3.588-1.392l-.297.268zm3.885 1.524c1.055 0 1.936-.196 2.63-.603l-.202-.345c-.615.36-1.419.548-2.428.548v.4zm2.627-.601c.751-.424 1.121-1.122 1.121-2.054h-.4c0 .807-.309 1.362-.917 1.705l.196.349zm1.121-2.054c0-.77-.274-1.392-.829-1.843l-.252.31c.451.367.681.87.681 1.533h.4zm-.825-1.84c-.503-.43-1.157-.773-1.955-1.035l-.124.38c.762.25 1.366.571 1.819.96l.26-.305zm-1.953-1.034a150.55 150.55 0 0 0-2.456-.807l-.122.381c.88.281 1.696.55 2.45.805l.128-.38zm-2.455-.806a15.91 15.91 0 0 1-2.423-1.023l-.185.354c.79.414 1.617.764 2.483 1.049l.125-.38zm-2.416-1.02a5.647 5.647 0 0 1-1.823-1.667l-.327.23c.52.74 1.17 1.335 1.951 1.784l.199-.346zm-1.819-1.66c-.451-.7-.685-1.63-.685-2.807h-.4c0 1.227.244 2.24.749 3.023l.336-.216zm-.685-2.807c0-1.734.63-3.052 1.882-3.982l-.238-.321c-1.365 1.013-2.044 2.457-2.044 4.303h.4zm1.884-3.984c1.262-.962 3.013-1.454 5.276-1.454v-.4c-2.317 0-4.164.504-5.518 1.536l.242.318zm5.276-1.454c1.17 0 2.21.113 3.122.339l.096-.389c-.95-.234-2.023-.35-3.218-.35v.4zm3.124.34c.944.226 1.811.529 2.602.906l.172-.361a13.649 13.649 0 0 0-2.681-.935l-.093.39zm2.488.725v5.255h.4v-5.255h-.4zm.163 5.059a2.999 2.999 0 0 1-1.133 0l-.075.392a3.4 3.4 0 0 0 1.283 0l-.075-.392zm-.974.158c-.331-1.71-.922-3.006-1.792-3.863l-.281.285c.791.779 1.357 1.988 1.68 3.654l.393-.076zm-1.792-3.863c-.869-.856-1.926-1.285-3.16-1.285v.4c1.131 0 2.087.389 2.879 1.17l.281-.285zm-3.16-1.285c-1.052 0-1.874.207-2.428.658l.252.31c.452-.367 1.165-.568 2.176-.568v-.4zm-2.428.658c-.557.453-.829 1.09-.829 1.881h.4c0-.69.231-1.205.681-1.57l-.252-.31zm-.829 1.881c0 .77.273 1.392.829 1.843l.252-.31c-.451-.367-.681-.87-.681-1.532h-.4zm.829 1.843c.525.428 1.202.783 2.022 1.07l.132-.378c-.79-.276-1.422-.611-1.902-1.002l-.252.31zm2.022 1.07a99.77 99.77 0 0 0 2.534.845l.122-.38a103.44 103.44 0 0 1-2.524-.843l-.132.378zm2.541.847c.892.252 1.734.592 2.526 1.02l.19-.353a12.783 12.783 0 0 0-2.608-1.052l-.108.385zm2.526 1.02c.779.42 1.409.975 1.894 1.664l.327-.23a5.823 5.823 0 0 0-2.031-1.787l-.19.352zm1.894 1.664c.472.673.718 1.575.718 2.724h.4c0-1.204-.257-2.194-.791-2.954l-.327.23zm.718 2.724c0 1.726-.687 3.071-2.067 4.056l.232.326c1.488-1.061 2.235-2.53 2.235-4.382h-.4zm-2.069 4.057c-1.361.988-3.326 1.496-5.921 1.496v.4c2.639 0 4.7-.515 6.156-1.572l-.235-.324z" mask="url(#a)"/><path fill="#222" d="M10.086 17.134C4.516 17.134 0 21.65 0 27.22s4.516 10.086 10.086 10.086 10.086-4.515 10.086-10.086a10.086 10.086 0 0 0-10.086-10.086zm-5.98 4.882.777-.776a.776.776 0 0 1 1.097 1.098l-.776.775a.776.776 0 0 1-1.097-1.097zm5.753.322-4.655 4.655a.776.776 0 0 1-1.097-1.097l4.655-4.655a.776.776 0 0 1 1.097 1.096zm25.055-5.204c-5.57 0-10.087 4.515-10.087 10.086 0 5.57 4.516 10.086 10.087 10.086a10.086 10.086 0 0 0 0-20.172zm-5.98 4.882.776-.776a.776.776 0 0 1 1.097 1.098l-.776.775a.776.776 0 0 1-1.097-1.097zm5.753.322-4.656 4.655a.776.776 0 0 1-1.097-1.097l4.655-4.656a.776.776 0 0 1 1.098 1.098zm-13.793.568c.195.488.359.988.489 1.498a2.318 2.318 0 0 1 2.234 0c.13-.51.294-1.01.489-1.498a3.947 3.947 0 0 0-3.212 0zm5.486 16.826a4.19 4.19 0 0 1-3.88 3.88 4.19 4.19 0 0 1-3.88-3.88c0-1.714 1.738-2.328 3.88-2.328s3.88.614 3.88 2.328zM9.482 11.846a12.676 12.676 0 0 1 2.239-4.59 11.4 11.4 0 0 1 2.517 4.5 7.142 7.142 0 0 1-4.756.09zm7.16-1.113c-.253.136-.577.3-.952.465a13.023 13.023 0 0 0-2.693-4.846c.114-.04.23-.073.348-.096a.776.776 0 0 0-.31-1.52c-2.922.583-4.329 4.194-5.228 7.285a.746.746 0 0 0-.011.037c-.135.473-.528 1.834-1.061 2.012a2.948 2.948 0 0 1-2.346-.722A9.767 9.767 0 0 1 .776 5.496c0-.931.151-3.104 1.552-3.104a9.404 9.404 0 0 1 1.992.31c1.124.29 2.278.446 3.439.466a7.883 7.883 0 0 0 2.494-.376 9.021 9.021 0 0 1 2.937-.4c.947 0 3.569 2.338 3.854 7.604a.786.786 0 0 1-.402.737zm14.12 1.022a11.396 11.396 0 0 1 2.517-4.5 12.668 12.668 0 0 1 2.24 4.59 7.138 7.138 0 0 1-4.757-.09zm9.846 1.593c-.64.57-1.496.834-2.346.722-.531-.177-.924-1.532-1.061-2.012 0-.012-.007-.024-.01-.036-.9-3.09-2.306-6.702-5.226-7.287a.776.776 0 0 0-.31 1.521c.117.025.232.057.345.098a13.026 13.026 0 0 0-2.694 4.847 16.252 16.252 0 0 1-.952-.466.787.787 0 0 1-.401-.738c.288-5.267 2.91-7.605 3.857-7.605a9.02 9.02 0 0 1 2.937.4 7.88 7.88 0 0 0 2.494.376c1.16-.02 2.315-.176 3.439-.465a9.404 9.404 0 0 1 1.992-.31c1.397 0 1.552 2.172 1.552 3.103a9.766 9.766 0 0 1-3.616 7.852z"/></svg>